<svg width="100" height="100" viewBox="0 0 100 100" fill="none" xmlns="http://www.w3.org/2000/svg">
<path d="M40.9182 27.9508C43.7768 19.1531 56.2232 19.1531 59.0818 27.9508V27.9508C60.3602 31.8853 64.0266 34.5491 68.1636 34.5491V34.5491C77.4141 34.5491 81.2602 46.3864 73.7764 51.8237V51.8237C70.4296 54.2554 69.0291 58.5655 70.3075 62.5V62.5C73.166 71.2977 63.0967 78.6136 55.6129 73.1763V73.1763C52.266 70.7446 47.734 70.7446 44.3872 73.1763V73.1763C36.9034 78.6136 26.834 71.2977 29.6925 62.5V62.5C30.9709 58.5655 29.5704 54.2554 26.2236 51.8237V51.8237C18.7398 46.3864 22.5859 34.5491 31.8364 34.5491V34.5491C35.9734 34.5491 39.6398 31.8853 40.9182 27.9508V27.9508Z" fill="white"/>
<circle cx="50" cy="50" r="11" fill="#E4B64B"/>
</svg>
